<?xml version="1.0" encoding="UTF-8"?>
<!DOCTYPE svg PUBLIC "-//W3C//DTD SVG 1.1//EN" "http://www.w3.org/Graphics/SVG/1.1/DTD/svg11.dtd">
<svg xmlns="http://www.w3.org/2000/svg" version="1.1" width="270px" height="179px" style="shape-rendering:geometricPrecision; text-rendering:geometricPrecision; image-rendering:optimizeQuality; fill-rule:evenodd; clip-rule:evenodd" xmlns:xlink="http://www.w3.org/1999/xlink">
<g><path style="opacity:1" fill="#fafafa" d="M -0.5,-0.5 C 89.5,-0.5 179.5,-0.5 269.5,-0.5C 269.5,59.1667 269.5,118.833 269.5,178.5C 179.5,178.5 89.5,178.5 -0.5,178.5C -0.5,118.833 -0.5,59.1667 -0.5,-0.5 Z"/></g>
<g><path style="opacity:1" fill="#171717" d="M 246.5,10.5 C 247.75,10.5774 248.583,11.244 249,12.5C 250.075,16.8583 249.408,20.8583 247,24.5C 246.997,21.9676 247.497,19.4676 248.5,17C 247.967,14.7739 247.3,12.6073 246.5,10.5 Z"/></g>
<g><path style="opacity:1" fill="#191919" d="M 224.5,15.5 C 223.244,17.7257 223.244,20.059 224.5,22.5C 224.44,23.0431 224.107,23.3764 223.5,23.5C 222.844,19.8583 221.511,16.525 219.5,13.5C 219.667,13.1667 219.833,12.8333 220,12.5C 221.563,15.0443 223.063,15.0443 224.5,12.5C 225.562,13.4246 225.562,14.4246 224.5,15.5 Z"/></g>
<g><path style="opacity:1" fill="#202020" d="M 231.5,18.5 C 231.5,18.1667 231.5,17.8333 231.5,17.5C 232.391,15.4493 233.558,13.4493 235,11.5C 237.188,12.0593 237.854,13.3927 237,15.5C 236.189,14.0403 235.355,13.707 234.5,14.5C 234.919,15.6721 235.585,16.6721 236.5,17.5C 238.167,15.5 239.833,13.5 241.5,11.5C 241.94,12.698 242.273,13.8647 242.5,15C 243.784,15.6838 244.951,15.5171 246,14.5C 245.621,16.075 245.788,17.575 246.5,19C 245.551,19.6172 244.718,19.4506 244,18.5C 243.077,19.7588 242.243,21.0921 241.5,22.5C 240.167,21.1667 238.833,19.8333 237.5,18.5C 235.942,23.6945 234.942,23.6945 234.5,18.5C 233.5,18.5 232.5,18.5 231.5,18.5 Z"/></g>
<g><path style="opacity:1" fill="#dedede" d="M 240.5,15.5 C 242.852,16.5426 243.019,17.8759 241,19.5C 240.51,18.2068 240.343,16.8734 240.5,15.5 Z"/></g>
<g><path style="opacity:1" fill="#0f0f0f" d="M 52.5,16.5 C 54.3566,19.0176 56.1899,19.0176 58,16.5C 58.1667,16.8333 58.3333,17.1667 58.5,17.5C 56.7812,20.1401 55.9479,22.8068 56,25.5C 55.8813,22.0047 54.7146,19.0047 52.5,16.5 Z"/></g>
<g><path style="opacity:1" fill="#989898" d="M 224.5,15.5 C 226.715,16.2679 229.048,16.9346 231.5,17.5C 231.5,17.8333 231.5,18.1667 231.5,18.5C 230.833,19.5 230.167,20.5 229.5,21.5C 229.38,20.4138 228.713,19.7472 227.5,19.5C 226.287,19.7472 225.62,20.4138 225.5,21.5C 225.5,22.1667 225.167,22.5 224.5,22.5C 223.244,20.059 223.244,17.7257 224.5,15.5 Z"/></g>
<g><path style="opacity:1" fill="#4e4e4e" d="M 229.5,21.5 C 228.167,21.5 226.833,21.5 225.5,21.5C 225.62,20.4138 226.287,19.7472 227.5,19.5C 228.713,19.7472 229.38,20.4138 229.5,21.5 Z"/></g>
<g><path style="opacity:1" fill="#222222" d="M 33.5,59.5 C 34.4614,61.2646 34.7947,63.2646 34.5,65.5C 35.9778,65.238 37.3112,65.5713 38.5,66.5C 36.604,67.4656 34.604,67.7989 32.5,67.5C 32.2786,64.7212 32.612,62.0545 33.5,59.5 Z"/></g>
<g><path style="opacity:1" fill="#1d1d1d" d="M 46.5,60.5 C 47.7562,60.4614 48.7562,60.9614 49.5,62C 48.2888,62.8928 48.2888,63.7261 49.5,64.5C 51.5294,63.3707 51.8627,63.8707 50.5,66C 49.2068,66.49 47.8734,66.6567 46.5,66.5C 45.7249,64.3881 45.7249,62.3881 46.5,60.5 Z"/></g>
<g><path style="opacity:1" fill="#0d0d0d" d="M 41.5,60.5 C 42.452,61.452 43.452,62.452 44.5,63.5C 43.4783,64.354 42.6449,65.354 42,66.5C 41.2276,65.1509 40.0609,64.3176 38.5,64C 40.0629,63.2411 41.0629,62.0744 41.5,60.5 Z"/></g>
<g><path style="opacity:1" fill="#363636" d="M 191.5,63.5 C 193.604,63.2011 195.604,63.5344 197.5,64.5C 196.5,64.8333 195.5,65.1667 194.5,65.5C 192.97,65.3601 191.97,64.6935 191.5,63.5 Z"/></g>
<g><path style="opacity:1" fill="#1a1a1a" d="M 185.5,63.5 C 186.978,63.238 188.311,63.5713 189.5,64.5C 187.926,65.6309 186.259,65.7975 184.5,65C 185.056,64.6174 185.389,64.1174 185.5,63.5 Z"/></g>
<g><path style="opacity:1" fill="#1e1e1e" d="M 200.5,63.5 C 202.604,63.2011 204.604,63.5344 206.5,64.5C 205.5,64.8333 204.5,65.1667 203.5,65.5C 201.97,65.3601 200.97,64.6935 200.5,63.5 Z"/></g>
<g><path style="opacity:1" fill="#616161" d="M 208.5,63.5 C 210.288,63.2148 211.955,63.5481 213.5,64.5C 212.667,64.8333 211.833,65.1667 211,65.5C 209.624,65.3158 208.791,64.6491 208.5,63.5 Z"/></g>
<g><path style="opacity:1" fill="#4d4d4d" d="M 215.5,63.5 C 217.527,63.3379 219.527,63.5045 221.5,64C 219.121,66.1422 217.121,65.9755 215.5,63.5 Z"/></g>
<g><path style="opacity:1" fill="#6b6b6b" d="M 222.5,63.5 C 224.924,63.1924 227.257,63.5258 229.5,64.5C 228.333,64.8333 227.167,65.1667 226,65.5C 224.319,65.3917 223.152,64.7251 222.5,63.5 Z"/></g>
<g><path style="opacity:1" fill="#141414" d="M 155.5,75.5 C 156.793,77.3635 156.793,79.3635 155.5,81.5C 155.254,79.7805 155.254,77.7805 155.5,75.5 Z"/></g>
<g><path style="opacity:1" fill="#222222" d="M 47.5,82.5 C 49.256,83.5521 49.9227,85.2188 49.5,87.5C 51.288,87.2148 52.9547,87.5481 54.5,88.5C 52.4902,90.1713 50.1569,90.838 47.5,90.5C 47.5,87.8333 47.5,85.1667 47.5,82.5 Z"/></g>
<g><path style="opacity:1" fill="#404040" d="M 155.5,85.5 C 157.273,87.6002 157.606,89.9335 156.5,92.5C 155.526,90.2573 155.192,87.924 155.5,85.5 Z"/></g>
<g><path style="opacity:1" fill="#1c1c1c" d="M 140.5,91.5 C 141.376,91.3691 142.043,91.7025 142.5,92.5C 141.846,94.1151 141.346,95.7818 141,97.5C 140.505,95.5273 140.338,93.5273 140.5,91.5 Z"/></g>
<g><path style="opacity:1" fill="#424242" d="M 155.5,96.5 C 156.725,97.1522 157.392,98.3189 157.5,100C 157.167,101.167 156.833,102.333 156.5,103.5C 155.526,101.257 155.192,98.924 155.5,96.5 Z"/></g>
<g><path style="opacity:1" fill="#2a2a2a" d="M 140.5,98.5 C 142.337,98.6395 142.67,99.3061 141.5,100.5C 140.702,100.043 140.369,99.3764 140.5,98.5 Z"/></g>
<g><path style="opacity:1" fill="#262626" d="M 213.5,104.5 C 215.604,104.201 217.604,104.534 219.5,105.5C 218.5,105.833 217.5,106.167 216.5,106.5C 214.97,106.36 213.97,105.693 213.5,104.5 Z"/></g>
<g><path style="opacity:1" fill="#1e1e1e" d="M 222.5,104.5 C 224.604,104.201 226.604,104.534 228.5,105.5C 227.5,105.833 226.5,106.167 225.5,106.5C 223.97,106.36 222.97,105.693 222.5,104.5 Z"/></g>
<g><path style="opacity:1" fill="#4b4b4b" d="M 123.5,99.5 C 124.997,101.562 126.33,103.895 127.5,106.5C 125.5,107.833 123.5,107.833 121.5,106.5C 123.173,104.477 123.84,102.144 123.5,99.5 Z"/></g>
<g><path style="opacity:1" fill="#323232" d="M 182.5,104.5 C 184.429,104.231 186.095,104.731 187.5,106C 185.5,106.667 183.5,106.667 181.5,106C 182.056,105.617 182.389,105.117 182.5,104.5 Z"/></g>
<g><path style="opacity:1" fill="#525252" d="M 197.5,104.5 C 199.924,104.192 202.257,104.526 204.5,105.5C 203.333,105.833 202.167,106.167 201,106.5C 199.319,106.392 198.152,105.725 197.5,104.5 Z"/></g>
<g><path style="opacity:1" fill="#373737" d="M 206.5,104.5 C 208.288,104.215 209.955,104.548 211.5,105.5C 210.667,105.833 209.833,106.167 209,106.5C 207.624,106.316 206.791,105.649 206.5,104.5 Z"/></g>
<g><path style="opacity:1" fill="#191919" d="M 32.5,102.5 C 33.4614,104.265 33.7947,106.265 33.5,108.5C 38.696,108.565 38.696,109.232 33.5,110.5C 32.914,110.291 32.414,109.957 32,109.5C 32.2068,107.249 32.3735,104.915 32.5,102.5 Z"/></g>
<g><path style="opacity:1" fill="#1a1a1a" d="M 36.5,106.5 C 38.3635,105.207 40.3635,105.207 42.5,106.5C 40.4844,107.694 38.4844,107.694 36.5,106.5 Z"/></g>
<g><path style="opacity:1" fill="#3e3e3e" d="M 130.5,105.5 C 132.604,105.201 134.604,105.534 136.5,106.5C 135.5,106.833 134.5,107.167 133.5,107.5C 131.97,107.36 130.97,106.693 130.5,105.5 Z"/></g>
<g><path style="opacity:1" fill="#303030" d="M 140.5,102.5 C 142.595,104.708 145.262,105.875 148.5,106C 146.111,107.096 143.611,107.929 141,108.5C 140.505,106.527 140.338,104.527 140.5,102.5 Z"/></g>
<g><path style="opacity:1" fill="#2b2b2b" d="M 150.5,105.5 C 152.199,105.34 153.866,105.506 155.5,106C 153.415,108.139 151.749,107.972 150.5,105.5 Z"/></g>
<g><path style="opacity:1" fill="#2f2f2f" d="M 158.5,105.5 C 165.108,105.271 165.608,105.937 160,107.5C 158.97,107.164 158.47,106.497 158.5,105.5 Z"/></g>
<g><path style="opacity:1" fill="#1c1c1c" d="M 45.5,102.5 C 47.8632,104.083 47.8632,105.916 45.5,108C 47.2251,107.591 48.8918,107.758 50.5,108.5C 48.0379,111.053 45.7045,111.053 43.5,108.5C 44.1717,106.47 44.8384,104.47 45.5,102.5 Z"/></g>
<g><path style="opacity:1" fill="#313131" d="M 123.5,108.5 C 124.693,108.97 125.36,109.97 125.5,111.5C 125.333,112.5 125.167,113.5 125,114.5C 123.681,112.75 123.181,110.75 123.5,108.5 Z"/></g>
<g><path style="opacity:1" fill="#151515" d="M 140.5,109.5 C 142.337,109.639 142.67,110.306 141.5,111.5C 140.702,111.043 140.369,110.376 140.5,109.5 Z"/></g>
<g><path style="opacity:1" fill="#4b4b4b" d="M 155.5,107.5 C 156.748,108.334 157.415,109.667 157.5,111.5C 157.167,112.833 156.833,114.167 156.5,115.5C 155.52,112.914 155.187,110.247 155.5,107.5 Z"/></g>
<g><path style="opacity:1" fill="#222222" d="M 140.5,113.5 C 142.465,113.948 142.798,114.948 141.5,116.5C 140.614,115.675 140.281,114.675 140.5,113.5 Z"/></g>
<g><path style="opacity:1" fill="#222222" d="M 140.5,117.5 C 142.465,117.948 142.798,118.948 141.5,120.5C 140.614,119.675 140.281,118.675 140.5,117.5 Z"/></g>
<g><path style="opacity:1" fill="#595959" d="M 155.5,118.5 C 156.693,118.97 157.36,119.97 157.5,121.5C 157.167,122.5 156.833,123.5 156.5,124.5C 155.534,122.604 155.201,120.604 155.5,118.5 Z"/></g>
<g><path style="opacity:1" fill="#2b2b2b" d="M 140.5,122.5 C 143.797,122.329 144.131,122.995 141.5,124.5C 140.702,124.043 140.369,123.376 140.5,122.5 Z"/></g>
<g><path style="opacity:1" fill="#202020" d="M 140.5,125.5 C 142.465,125.948 142.798,126.948 141.5,128.5C 140.614,127.675 140.281,126.675 140.5,125.5 Z"/></g>
<g><path style="opacity:1" fill="#1b1b1b" d="M 140.5,129.5 C 142.225,129.843 142.725,130.843 142,132.5C 140.961,131.756 140.461,130.756 140.5,129.5 Z"/></g>
<g><path style="opacity:1" fill="#515151" d="M 155.5,128.5 C 156.725,129.152 157.392,130.319 157.5,132C 157.167,133.167 156.833,134.333 156.5,135.5C 155.526,133.257 155.192,130.924 155.5,128.5 Z"/></g>
<g><path style="opacity:1" fill="#1b1b1b" d="M 140.5,133.5 C 142.225,133.843 142.725,134.843 142,136.5C 140.961,135.756 140.461,134.756 140.5,133.5 Z"/></g>
<g><path style="opacity:1" fill="#1e1e1e" d="M 232.5,135.5 C 233.482,136.141 234.482,136.807 235.5,137.5C 239.269,134.773 239.935,135.273 237.5,139C 240.274,142.697 239.774,143.197 236,140.5C 232.261,144.325 231.761,143.825 234.5,139C 233.177,138.184 232.511,137.017 232.5,135.5 Z"/></g>
<g><path style="opacity:1" fill="#3b3b3b" d="M 29.5,141.5 C 23.8333,142.167 18.1667,142.833 12.5,143.5C 11.9569,143.44 11.6236,143.107 11.5,142.5C 17.4632,141.504 23.4632,141.171 29.5,141.5 Z"/></g>
<g><path style="opacity:1" fill="#151515" d="M 123.5,99.5 C 102.915,107.114 82.2482,114.781 61.5,122.5C 60.5037,128.798 60.1703,135.132 60.5,141.5C 81.8282,140.9 103.162,140.567 124.5,140.5C 124.216,138.585 124.549,136.919 125.5,135.5C 125.5,137.167 125.5,138.833 125.5,140.5C 136.423,141.107 147.09,140.44 157.5,138.5C 158.871,139.787 160.705,140.453 163,140.5C 181.166,139.908 199.333,139.241 217.5,138.5C 216.833,137.833 216.167,137.167 215.5,136.5C 215.833,136.167 216.167,135.833 216.5,135.5C 218.493,137.499 220.827,138.999 223.5,140C 221.47,142.173 219.137,143.507 216.5,144C 217.5,143 218.5,142 219.5,141C 217.333,140.833 215.167,140.667 213,140.5C 194.108,140.75 175.441,141.75 157,143.5C 156.5,143 156,142.5 155.5,142C 153.333,141.833 151.167,141.667 149,141.5C 143.973,142.163 138.807,142.163 133.5,141.5C 130.387,141.562 127.554,142.229 125,143.5C 124.311,142.643 123.478,141.977 122.5,141.5C 102.096,142.449 81.429,142.783 60.5,142.5C 60.6304,151.268 60.6304,159.935 60.5,168.5C 59.502,159.859 59.1686,151.192 59.5,142.5C 51.4931,142.334 43.4931,142.5 35.5,143C 33.9588,144.579 32.7922,146.413 32,148.5C 30.6617,152.564 29.3284,156.564 28,160.5C 28.5268,154.269 29.8602,148.269 32,142.5C 25.5898,143.478 19.0898,143.811 12.5,143.5C 18.1667,142.833 23.8333,142.167 29.5,141.5C 31.288,141.785 32.9547,141.452 34.5,140.5C 40.7169,132.111 48.5502,125.778 58,121.5C 57.9131,113.366 58.0797,105.366 58.5,97.5C 58.453,93.733 57.7864,90.233 56.5,87C 57,86.5 57.5,86 58,85.5C 58.6667,80.5 58.6667,75.5 58,70.5C 57.6964,68.5595 56.8631,66.8928 55.5,65.5C 56.7828,60.3433 57.4495,55.01 57.5,49.5C 57.3333,44.5 57.1667,39.5 57,34.5C 56.2747,36.158 55.108,36.658 53.5,36C 55.6166,34.2691 57.1166,32.1024 58,29.5C 59.3076,31.6414 60.8076,33.6414 62.5,35.5C 61.1667,35.8333 59.8333,36.1667 58.5,36.5C 59.4733,45.7797 59.8066,55.113 59.5,64.5C 64.8333,65.1667 64.8333,65.8333 59.5,66.5C 59.5,72.8333 59.5,79.1667 59.5,85.5C 60.675,85.281 61.675,85.6143 62.5,86.5C 62.0431,87.2975 61.3764,87.6309 60.5,87.5C 59.5093,93.979 59.176,100.646 59.5,107.5C 61.099,107.232 62.4324,107.566 63.5,108.5C 62.1667,108.5 60.8333,108.5 59.5,108.5C 59.5,112.5 59.5,116.5 59.5,120.5C 70.4626,117.071 81.1293,113.071 91.5,108.5C 108.743,106.03 123.743,98.8633 136.5,87C 135.906,86.5357 135.239,86.369 134.5,86.5C 134.833,85.8333 135.167,85.1667 135.5,84.5C 139.966,83.1749 143.466,80.5082 146,76.5C 148.112,72.7216 150.612,69.2216 153.5,66C 152.167,65.6667 150.833,65.3333 149.5,65C 156.594,61.9479 163.26,57.9479 169.5,53C 179.267,49.6173 188.934,45.9507 198.5,42C 206.265,36.8671 213.099,30.7004 219,23.5C 219.5,24 220,24.5 220.5,25C 208.303,39.434 192.97,48.7674 174.5,53C 169.003,55.2454 164.003,58.2454 159.5,62C 151.429,70.0012 145.263,79.1679 141,89.5C 140.333,88.8333 139.667,88.1667 139,87.5C 133.855,91.6409 128.688,95.6409 123.5,99.5 Z"/></g>
<g><path style="opacity:1" fill="#989898" d="M 125.5,135.5 C 126.434,136.568 126.768,137.901 126.5,139.5C 131.739,140.037 136.739,139.37 141.5,137.5C 143.793,138.705 146.293,139.372 149,139.5C 151.707,139.372 154.207,138.705 156.5,137.5C 157.107,137.624 157.44,137.957 157.5,138.5C 147.09,140.44 136.423,141.107 125.5,140.5C 125.5,138.833 125.5,137.167 125.5,135.5 Z"/></g>
<g><path style="opacity:1" fill="#f3f3f3" d="M 57.5,123.5 C 58.4896,129.31 58.8229,135.31 58.5,141.5C 51.1365,141.831 43.8032,141.497 36.5,140.5C 42.0949,132.886 49.0949,127.219 57.5,123.5 Z"/></g>
<g><path style="opacity:1" fill="#1e1e1e" d="M 91.5,108.5 C 89.3453,108.628 87.3453,108.128 85.5,107C 86.5,106.833 87.5,106.667 88.5,106.5C 90.0296,106.64 91.0296,107.307 91.5,108.5 Z"/></g>
<g><path style="opacity:1" fill="#141414" d="M 76.5,106.5 C 78.604,106.201 80.604,106.534 82.5,107.5C 80.563,108.158 78.7297,108.491 77,108.5C 76.5357,107.906 76.369,107.239 76.5,106.5 Z"/></g>
<g><path style="opacity:1" fill="#313131" d="M 125.5,87.5 C 125.808,89.924 125.474,92.2573 124.5,94.5C 124.167,93.3333 123.833,92.1667 123.5,91C 123.608,89.3189 124.275,88.1522 125.5,87.5 Z"/></g>
<g><path style="opacity:1" fill="#8d8d8d" d="M 60.5,87.5 C 60.5,93.8333 60.5,100.167 60.5,106.5C 61.9778,106.238 63.3112,106.571 64.5,107.5C 64.3764,108.107 64.0431,108.44 63.5,108.5C 62.4324,107.566 61.099,107.232 59.5,107.5C 59.176,100.646 59.5093,93.979 60.5,87.5 Z"/></g>
<g><path style="opacity:1" fill="#373737" d="M 126.5,85.5 C 127.492,85.3284 128.158,85.6618 128.5,86.5C 127.391,86.5569 126.391,86.8902 125.5,87.5C 125.328,86.5084 125.662,85.8417 126.5,85.5 Z"/></g>
<g><path style="opacity:1" fill="#3d3d3d" d="M 108.5,86.5 C 109.386,85.2241 110.386,85.2241 111.5,86.5C 110.575,87.5624 109.575,87.5624 108.5,86.5 Z"/></g>
<g><path style="opacity:1" fill="#3f3f3f" d="M 104.5,86.5 C 105.386,85.2241 106.386,85.2241 107.5,86.5C 106.575,87.5624 105.575,87.5624 104.5,86.5 Z"/></g>
<g><path style="opacity:1" fill="#222222" d="M 95.5,85.5 C 99.5878,85.2184 100.088,85.8851 97,87.5C 95.9701,87.1639 95.4701,86.4972 95.5,85.5 Z"/></g>
<g><path style="opacity:1" fill="#131313" d="M 91.5,85.5 C 93.337,85.6395 93.6704,86.3061 92.5,87.5C 91.7025,87.0431 91.3691,86.3764 91.5,85.5 Z"/></g>
<g><path style="opacity:1" fill="#252525" d="M 87.5,85.5 C 88.675,85.281 89.675,85.6143 90.5,86.5C 88.9483,87.7979 87.9483,87.4646 87.5,85.5 Z"/></g>
<g><path style="opacity:1" fill="#0a0a0a" d="M 83.5,85.5 C 85.337,85.6395 85.6704,86.3061 84.5,87.5C 83.7025,87.0431 83.3691,86.3764 83.5,85.5 Z"/></g>
<g><path style="opacity:1" fill="#272727" d="M 73.5,85.5 C 74.675,85.281 75.675,85.6143 76.5,86.5C 74.9483,87.7979 73.9483,87.4646 73.5,85.5 Z"/></g>
<g><path style="opacity:1" fill="#232323" d="M 68.5,85.5 C 69.675,85.281 70.675,85.6143 71.5,86.5C 69.9483,87.7979 68.9483,87.4646 68.5,85.5 Z"/></g>
<g><path style="opacity:1" fill="#282828" d="M 64.5,85.5 C 65.675,85.281 66.675,85.6143 67.5,86.5C 65.9483,87.7979 64.9483,87.4646 64.5,85.5 Z"/></g>
<g><path style="opacity:1" fill="#9b9b9b" d="M 126.5,85.5 C 129.287,84.5233 132.287,84.19 135.5,84.5C 135.167,85.1667 134.833,85.8333 134.5,86.5C 132.5,87.8333 130.5,87.8333 128.5,86.5C 128.158,85.6618 127.492,85.3284 126.5,85.5 Z"/></g>
<g><path style="opacity:1" fill="#5c5c5c" d="M 113.5,86.5 C 115.628,85.3709 117.961,85.2042 120.5,86C 119.975,86.6924 119.308,87.1924 118.5,87.5C 116.929,86.6906 115.262,86.3573 113.5,86.5 Z"/></g>
<g><path style="opacity:1" fill="#171717" d="M 100.5,85.5 C 103.797,85.3287 104.131,85.9954 101.5,87.5C 100.702,87.0431 100.369,86.3764 100.5,85.5 Z"/></g>
<g><path style="opacity:1" fill="#212121" d="M 78.5,85.5 C 79.675,85.281 80.675,85.6143 81.5,86.5C 79.9483,87.7979 78.9483,87.4646 78.5,85.5 Z"/></g>
<g><path style="opacity:1" fill="#c6c6c6" d="M 139.5,83.5 C 141.337,83.6395 141.67,84.3061 140.5,85.5C 139.702,85.0431 139.369,84.3764 139.5,83.5 Z"/></g>
<g><path style="opacity:1" fill="#717171" d="M 121.5,84.5 C 122.675,84.281 123.675,84.6143 124.5,85.5C 122.948,86.7979 121.948,86.4646 121.5,84.5 Z"/></g>
<g><path style="opacity:1" fill="#131313" d="M 123.5,76.5 C 124.239,76.369 124.906,76.5357 125.5,77C 125.253,78.8133 124.92,80.6467 124.5,82.5C 123.534,80.604 123.201,78.604 123.5,76.5 Z"/></g>
<g><path style="opacity:1" fill="#4b4b4b" d="M 125.5,64.5 C 127.199,64.3398 128.866,64.5065 130.5,65C 128.415,67.1391 126.749,66.9725 125.5,64.5 Z"/></g>
<g><path style="opacity:1" fill="#4d4d4d" d="M 115.5,65.5 C 117.364,64.2072 119.364,64.2072 121.5,65.5C 119.484,66.6942 117.484,66.6942 115.5,65.5 Z"/></g>
<g><path style="opacity:1" fill="#272727" d="M 66.5,64.5 C 68.604,64.2011 70.604,64.5344 72.5,65.5C 71.5,65.8333 70.5,66.1667 69.5,66.5C 67.9704,66.3601 66.9704,65.6935 66.5,64.5 Z"/></g>
<g><path style="opacity:1" fill="#1d1d1d" d="M 106.5,65.5 C 108.364,64.2072 110.364,64.2072 112.5,65.5C 110.484,66.6942 108.484,66.6942 106.5,65.5 Z"/></g>
<g><path style="opacity:1" fill="#171717" d="M 97.5,64.5 C 99.924,64.1924 102.257,64.5258 104.5,65.5C 103.333,65.8333 102.167,66.1667 101,66.5C 99.3189,66.3917 98.1522,65.7251 97.5,64.5 Z"/></g>
<g><path style="opacity:1" fill="#4c4c4c" d="M 86.5,64.5 C 88.924,64.1924 91.2573,64.5258 93.5,65.5C 92.3333,65.8333 91.1667,66.1667 90,66.5C 88.3189,66.3917 87.1522,65.7251 86.5,64.5 Z"/></g>
<g><path style="opacity:1" fill="#4a4a4a" d="M 75.5,64.5 C 77.924,64.1924 80.2573,64.5258 82.5,65.5C 81.3333,65.8333 80.1667,66.1667 79,66.5C 77.3189,66.3917 76.1522,65.7251 75.5,64.5 Z"/></g>
<g><path style="opacity:1" fill="#1c1c1c" d="M 155.5,53.5 C 156.793,55.3635 156.793,57.3635 155.5,59.5C 154.769,57.5988 154.769,55.5988 155.5,53.5 Z"/></g>
<g><path style="opacity:1" fill="#101010" d="M 122.5,44.5 C 123.693,44.9704 124.36,45.9704 124.5,47.5C 124.333,48.5 124.167,49.5 124,50.5C 123.495,48.4817 122.995,46.4817 122.5,44.5 Z"/></g>
<g><path style="opacity:1" fill="#232323" d="M 154.5,43.5 C 155.693,43.9704 156.36,44.9704 156.5,46.5C 156.333,47.5 156.167,48.5 156,49.5C 154.872,47.6547 154.372,45.6547 154.5,43.5 Z"/></g>
<g><path style="opacity:1" fill="#222222" d="M 141.5,144.5 C 143.178,145.747 144.511,147.414 145.5,149.5C 143.306,149.358 140.973,149.691 138.5,150.5C 138.028,147.642 139.028,145.642 141.5,144.5 Z"/></g>
<g><path style="opacity:1" fill="#222222" d="M 152.5,155.5 C 154.407,157.447 155.573,159.78 156,162.5C 154.54,160.578 152.873,159.911 151,160.5C 150.387,158.505 150.887,156.838 152.5,155.5 Z"/></g>
<g><path style="opacity:1" fill="#131313" d="M 158.5,155.5 C 162.241,156.646 162.408,158.313 159,160.5C 158.167,159.667 157.333,158.833 156.5,158C 157.381,157.292 158.047,156.458 158.5,155.5 Z"/></g>
<g><path style="opacity:1" fill="#111111" d="M 166.5,152.5 C 167.376,152.369 168.043,152.702 168.5,153.5C 167.5,154.333 166.5,155.167 165.5,156C 168.593,159.307 167.926,161.141 163.5,161.5C 163.439,158.049 164.439,155.049 166.5,152.5 Z"/></g>
<g><path style="opacity:1" fill="#272727" d="M 131.5,151.5 C 132.497,151.47 133.164,151.97 133.5,153C 130.94,155.159 130.94,157.326 133.5,159.5C 131.989,163.266 130.322,163.432 128.5,160C 129.247,157.194 130.247,154.361 131.5,151.5 Z"/></g>
<g><path style="opacity:1" fill="#141414" d="M 122.5,157.5 C 123.978,157.238 125.311,157.571 126.5,158.5C 124.926,159.631 123.259,159.798 121.5,159C 122.056,158.617 122.389,158.117 122.5,157.5 Z"/></g>
<g><path style="opacity:1" fill="#222222" d="M 116.5,156.5 C 119.656,156.529 121.322,158.196 121.5,161.5C 121.167,161.833 120.833,162.167 120.5,162.5C 119.28,161.289 118.113,161.289 117,162.5C 113.953,160.783 113.786,158.783 116.5,156.5 Z"/></g>
</svg>
